<?xml version="1.0" encoding="UTF-8"?>
<svg id="Calque_1" xmlns="http://www.w3.org/2000/svg" viewBox="0 0 89.97 82">
  <path d="M3,0C1.34,0,0,1.34,0,3s1.34,3,3,3h9.56l10.31,48.66c.41,1.83,1.61,3.36,3.12,3.34h50c1.58.02,3.04-1.41,3.04-3s-1.46-3.02-3.04-3H28.44l-1.28-6h52.84c1.34-.01,2.61-1.03,2.91-2.34l7-30c.39-1.74-1.12-3.64-2.91-3.66H19.56l-1.62-7.62C17.65,1.04,16.36,0,15,0H3ZM20.81,16h15.62l1.5,9h-15.22l-1.91-9ZM42.56,16h18.88l-1.5,9h-15.88l-1.5-9ZM67.56,16h15.66l-2.09,9h-15.06l1.5-9ZM24,31h14.94l1.5,9h-14.53l-1.91-9ZM45.06,31h13.88l-1.5,9h-10.88l-1.5-9ZM65.06,31h14.66l-2.09,9h-14.06l1.5-9ZM37,62c-5.49,0-10,4.51-10,10s4.51,10,10,10,10-4.51,10-10-4.51-10-10-10ZM65,62c-5.49,0-10,4.51-10,10s4.51,10,10,10,10-4.51,10-10-4.51-10-10-10ZM37,68c2.24,0,4,1.76,4,4s-1.76,4-4,4-4-1.76-4-4,1.76-4,4-4ZM65,68c2.24,0,4,1.76,4,4s-1.76,4-4,4-4-1.76-4-4,1.76-4,4-4Z"/>
</svg>